<svg width="1248" height="695" viewBox="0 0 1248 695" fill="none" xmlns="http://www.w3.org/2000/svg">
<g clip-path="url(#clip0_43_7)">
<path fill-rule="evenodd" clip-rule="evenodd" d="M0 584L53 588.171C107 592.341 213 600.682 320 614.798C427 629.234 533 649.766 640 653.936C747 658.107 853 645.595 960 641.746C1067 637.575 1173 641.746 1227 643.671L1280 645.595V695H1227C1173 695 1067 695 960 695C853 695 747 695 640 695C533 695 427 695 320 695C213 695 107 695 53 695H0V584Z" fill="#DFCC20" fill-opacity="0.8"/>
<path fill-rule="evenodd" clip-rule="evenodd" d="M0 628.4L42.6667 637.28C85.3333 646.16 170.667 663.92 256 659.48C341.333 655.04 426.667 628.4 512 610.64C597.333 592.88 682.667 584 768 584C853.333 584 938.667 592.88 1024 608.42C1109.33 623.96 1194.67 646.16 1237.33 657.26L1280 668.36V695H1237.33C1194.67 695 1109.33 695 1024 695C938.667 695 853.333 695 768 695C682.667 695 597.333 695 512 695C426.667 695 341.333 695 256 695C170.667 695 85.3333 695 42.6667 695H0V628.4Z" fill="#257EE7" fill-opacity="0.8"/>
</g>
<defs>
<clipPath id="clip0_43_7">
<rect width="1248" height="695" fill="white"/>
</clipPath>
</defs>
</svg>
