<svg width="290" height="136" viewBox="0 0 290 136" fill="none" xmlns="http://www.w3.org/2000/svg">
<circle cx="144.078" cy="73.2902" r="62.5648" fill="#3692FF"/>
<path fill-rule="evenodd" clip-rule="evenodd" d="M143.72 73.9643C141.393 73.9607 138.802 72.3241 138.802 72.3241C138.802 72.3241 136.659 71.0301 135.188 70.6724C133.717 70.3147 134.306 71.4533 134.306 71.4533C134.306 71.4533 135.907 75.2258 134.175 73.3252C132.442 71.4246 130.318 69.6315 130.318 69.6315C130.318 69.6315 127.474 67.2248 126.298 67.2126C125.121 67.2003 125.84 68.1685 125.84 68.1685C125.84 68.1685 128.325 71.3556 125.097 69.086C121.869 66.8165 119.33 67.2448 119.33 67.2448C114.683 68.0155 112.273 73.3252 112.273 73.3252L111.902 98.9007C111.902 98.9007 116.717 106.652 125.097 106.538C133.345 106.424 143.404 97.2 143.72 96.9085C144.036 97.2 154.096 106.424 162.344 106.538C170.724 106.652 175.539 98.9007 175.539 98.9007L175.168 73.3252C175.168 73.3252 172.758 68.0155 168.11 67.2448C168.11 67.2448 165.571 66.8165 162.344 69.086C159.116 71.3556 161.601 68.1685 161.601 68.1685C161.601 68.1685 162.319 67.2003 161.143 67.2126C159.966 67.2248 157.123 69.6315 157.123 69.6315C157.123 69.6315 154.998 71.4246 153.266 73.3252C151.533 75.2258 153.135 71.4533 153.135 71.4533C153.135 71.4533 153.723 70.3147 152.252 70.6724C150.782 71.0301 148.638 72.3241 148.638 72.3241C148.638 72.3241 146.047 73.9607 143.72 73.9643Z" fill="#E0DCD1"/>
<ellipse cx="144.078" cy="106.181" rx="30.0311" ry="16.0881" fill="#D9D9D9"/>
<ellipse cx="116.549" cy="87.2332" rx="7.50777" ry="17.1606" fill="#E0DCD1"/>
<ellipse cx="171.606" cy="87.9482" rx="7.50777" ry="17.1606" fill="#E0DCD1"/>
<path fill-rule="evenodd" clip-rule="evenodd" d="M144.034 117.622C146.493 117.622 151.585 109.553 151.585 106.394C151.585 103.235 151.567 102.249 144.034 102.249C136.501 102.249 136.57 103.235 136.57 106.394C136.57 109.553 141.576 117.622 144.034 117.622Z" fill="#292721"/>
<path fill-rule="evenodd" clip-rule="evenodd" d="M144.049 114.404C145.688 114.404 149.083 108.775 149.083 106.571C149.083 104.367 149.071 103.679 144.049 103.679C139.027 103.679 139.073 104.367 139.073 106.571C139.073 108.775 142.41 114.404 144.049 114.404Z" fill="#923C3C"/>
<path fill-rule="evenodd" clip-rule="evenodd" d="M137.179 102.114C138.975 97.0834 143.914 97.2398 144.076 97.2463C144.076 97.2428 149.15 96.9957 150.977 102.11C152.78 107.161 144.293 110.74 144.08 110.829C144.08 110.834 135.352 107.228 137.179 102.114Z" fill="#3D3A31"/>
<path fill-rule="evenodd" clip-rule="evenodd" d="M143.72 101.534C145.102 101.534 146.223 100.893 146.223 100.104C146.223 99.3139 145.102 98.6736 143.72 98.6736C142.338 98.6736 141.218 99.3139 141.218 100.104C141.218 100.893 142.338 101.534 143.72 101.534Z" fill="#726E62" stroke="#727272" stroke-width="0.5"/>
<path d="M103.813 73.5996C101.525 72.4554 101.805 69.1022 104.294 68.5097C109.008 67.3875 114.719 66.559 117.977 68.1759C123.002 70.6702 128.47 74.7034 133.873 79.8949C134.409 80.4101 134.648 81.1607 134.519 81.8931C134.204 83.689 131.99 84.4046 130.616 83.2057C127.228 80.249 123.858 77.9126 120.71 76.3502C117.228 74.6219 110.459 73.1221 106.926 73.7704C105.894 73.9598 104.752 74.0691 103.813 73.5996Z" fill="#834F13"/>
<path d="M130.638 73.5996C132.926 72.4554 132.647 69.1022 130.158 68.5097C125.443 67.3875 119.732 66.559 116.474 68.1759C111.449 70.6702 105.981 74.7034 100.578 79.8949C100.042 80.4101 99.8033 81.1607 99.9319 81.8931C100.247 83.689 102.461 84.4046 103.835 83.2057C107.223 80.249 110.593 77.9126 113.741 76.3502C117.223 74.6219 123.992 73.1221 127.525 73.7704C128.557 73.9598 129.699 74.0691 130.638 73.5996Z" fill="#834F13"/>
<path d="M185.553 72.8086C187.842 71.6643 187.562 68.3112 185.073 67.7187C180.359 66.5964 174.648 65.7679 171.39 67.3849C166.365 69.8792 160.897 73.9124 155.494 79.1039C154.958 79.6191 154.719 80.3697 154.848 81.1021C155.163 82.898 157.377 83.6136 158.751 82.4147C162.139 79.458 165.509 77.1216 168.657 75.5592C172.138 73.8309 178.908 72.3311 182.441 72.9793C183.473 73.1688 184.615 73.278 185.553 72.8086Z" fill="#834F13"/>
<path d="M158.729 72.8086C156.441 71.6643 156.72 68.3112 159.209 67.7187C163.924 66.5964 169.635 65.7679 172.893 67.3849C177.918 69.8792 183.386 73.9124 188.789 79.1039C189.325 79.6191 189.564 80.3697 189.435 81.1021C189.12 82.898 186.906 83.6136 185.532 82.4147C182.144 79.458 178.774 77.1216 175.626 75.5592C172.144 73.8309 165.375 72.3311 161.842 72.9793C160.81 73.1688 159.668 73.278 158.729 72.8086Z" fill="#834F13"/>
<path d="M175.583 60.6159C188.403 59.4976 188.046 54.0531 175.248 55.397C168.208 56.1362 163.458 56.9526 162.313 57.8398C156.323 62.4825 150.168 69.2795 144.418 77.5921C143.84 78.428 143.727 79.4991 144.103 80.4433C145.018 82.7401 148.151 83.085 149.653 81.1218C153.342 76.3023 157.179 72.309 160.932 69.3998C165.443 65.9039 169.969 61.1956 173.627 60.7212C174.275 60.6373 174.933 60.6726 175.583 60.6159Z" fill="#A45E1E"/>
<path d="M177.407 53.2968C182.427 50.2688 180.269 45.1099 174.745 47.0723C167.579 49.6178 161.107 52.5116 158.962 55.065C154.161 60.7829 148.689 68.4045 144.739 77.5425C144.285 78.5925 144.812 79.798 145.879 80.2108C146.93 80.6176 148.106 80.0956 148.591 79.0779C151.579 72.8023 155.299 70.8207 158.962 66.4575C162.61 62.1135 170.918 55.6361 175.245 54.1837C175.985 53.9354 176.739 53.6999 177.407 53.2968Z" fill="#7B4A1D"/>
<path d="M167.628 49.5918C170.477 46.4953 168.222 42.124 164.478 44.0447C156.152 48.3165 151.273 56.8938 148.878 61.5106C146.46 66.1718 142.746 68.9726 144.202 77.0102C144.404 78.1231 145.39 78.9031 146.521 78.939C147.85 78.9811 148.967 77.9834 149.25 76.6841C150.434 71.2553 153.407 68.6725 155.66 64.3281C157.985 59.8449 162.331 53.1581 165.85 50.9437C166.483 50.5459 167.122 50.1416 167.628 49.5918Z" fill="#5E3F24"/>
<path d="M182.702 66.8092C191.886 65.6383 191.724 59.6192 182.472 59.9713C176.402 60.2023 171.466 60.754 169.383 61.7797C162.585 65.1287 155.193 70.5554 147.895 77.5481C147.161 78.2513 146.836 79.2781 147.016 80.2785C147.452 82.7119 150.452 83.6773 152.318 82.0548C156.897 78.0717 161.455 74.9275 165.715 72.829C170.44 70.5018 175.383 67.1658 179.01 66.8751C180.234 66.777 181.484 66.9644 182.702 66.8092Z" fill="#946131"/>
<path fill-rule="evenodd" clip-rule="evenodd" d="M126.202 99.3886C131.336 99.3886 135.497 94.4266 135.497 88.3057C135.497 82.1848 131.336 77.2228 126.202 77.2228C121.068 77.2228 116.907 82.1848 116.907 88.3057C116.907 94.4266 121.068 99.3886 126.202 99.3886Z" fill="black" stroke="black"/>
<path fill-rule="evenodd" clip-rule="evenodd" d="M126.301 94.8542C129.142 94.8542 131.444 92.0912 131.444 88.6829C131.444 85.2745 129.142 82.5115 126.301 82.5115C123.461 82.5115 121.159 85.2745 121.159 88.6829C121.159 92.0912 123.461 94.8542 126.301 94.8542Z" fill="black"/>
<path fill-rule="evenodd" clip-rule="evenodd" d="M128.347 89.3782C130.322 89.3782 131.922 87.7776 131.922 85.8031C131.922 83.8286 130.322 82.228 128.347 82.228C126.373 82.228 124.772 83.8286 124.772 85.8031C124.772 87.7776 126.373 89.3782 128.347 89.3782Z" fill="white"/>
<path fill-rule="evenodd" clip-rule="evenodd" d="M131.922 91.5233C132.712 91.5233 133.352 90.8831 133.352 90.0933C133.352 89.3035 132.712 88.6632 131.922 88.6632C131.132 88.6632 130.492 89.3035 130.492 90.0933C130.492 90.8831 131.132 91.5233 131.922 91.5233Z" fill="white"/>
<path fill-rule="evenodd" clip-rule="evenodd" d="M161.238 99.3886C166.372 99.3886 170.534 94.4266 170.534 88.3057C170.534 82.1848 166.372 77.2228 161.238 77.2228C156.105 77.2228 151.943 82.1848 151.943 88.3057C151.943 94.4266 156.105 99.3886 161.238 99.3886Z" fill="black" stroke="black"/>
<path fill-rule="evenodd" clip-rule="evenodd" d="M161.272 94.8542C164.112 94.8542 166.415 92.0912 166.415 88.6829C166.415 85.2745 164.112 82.5115 161.272 82.5115C158.432 82.5115 156.129 85.2745 156.129 88.6829C156.129 92.0912 158.432 94.8542 161.272 94.8542Z" fill="black"/>
<path fill-rule="evenodd" clip-rule="evenodd" d="M160.523 88.6632C162.498 88.6632 164.098 87.0626 164.098 85.0881C164.098 83.1136 162.498 81.513 160.523 81.513C158.549 81.513 156.948 83.1136 156.948 85.0881C156.948 87.0626 158.549 88.6632 160.523 88.6632Z" fill="white"/>
<path fill-rule="evenodd" clip-rule="evenodd" d="M156.233 90.8083C157.023 90.8083 157.663 90.1681 157.663 89.3782C157.663 88.5884 157.023 87.9482 156.233 87.9482C155.443 87.9482 154.803 88.5884 154.803 89.3782C154.803 90.1681 155.443 90.8083 156.233 90.8083Z" fill="white"/>
<ellipse cx="117.318" cy="103.307" rx="8.2228" ry="3.93264" transform="rotate(16.1435 117.318 103.307)" fill="#FF8484"/>
<ellipse cx="170.945" cy="103.307" rx="8.2228" ry="3.93264" transform="rotate(-16.14 170.945 103.307)" fill="#FF8484"/>
<path d="M140.828 46.3661C142.537 43.7239 146.438 43.7007 147.487 46.6678C148.928 50.7434 148.824 54.4904 148.725 59.3826C148.626 64.2849 148.699 66.426 146.721 72.7788C146.151 74.61 144.296 75.7089 142.405 75.3893C140.737 75.1075 139.432 73.7847 139.229 72.1053C138.51 66.1548 138.439 61.0855 138.536 56.2805C138.64 51.1209 139.479 49.8912 140.315 47.4403C140.444 47.0636 140.612 46.7003 140.828 46.3661Z" fill="#8C6138"/>
<path d="M153.507 45.7357C156.167 44.0534 159.718 45.6673 159.427 48.8009C159.027 53.1053 157.361 56.4634 155.221 60.8636C153.076 65.273 152.246 67.2476 147.788 72.1867C146.502 73.6104 144.358 73.8305 142.775 72.7478C141.378 71.7928 140.747 70.0447 141.267 68.4348C143.109 62.7309 145.169 58.0986 147.271 53.7767C149.528 49.1358 150.805 48.3711 152.591 46.4962C152.866 46.2081 153.171 45.9485 153.507 45.7357Z" fill="#8C6138"/>
<path d="M129.704 47.7143C130.366 44.6378 134.006 43.2344 136.038 45.6375C138.83 48.9385 140.059 52.4797 141.699 57.0897C143.343 61.7092 144.17 63.6855 144.571 70.3269C144.686 72.2414 143.341 73.9261 141.459 74.2971C139.799 74.6243 138.11 73.8497 137.325 72.351C134.545 67.0409 132.683 62.3256 131.072 57.7977C129.342 52.9356 129.691 51.4885 129.605 48.9003C129.592 48.5026 129.62 48.1033 129.704 47.7143Z" fill="#8C6138"/>
<path d="M113.784 61.4069C100.963 60.2887 101.321 54.8441 114.119 56.1881C121.159 56.9273 125.909 57.7437 127.054 58.6309C133.044 63.2736 139.199 70.0705 144.949 78.3832C145.527 79.219 145.64 80.2902 145.264 81.2344C144.349 83.5311 141.216 83.876 139.714 81.9129C136.025 77.0934 132.188 73.1 128.435 70.1909C123.924 66.695 119.398 61.9867 115.74 61.5123C115.092 61.4283 114.434 61.4637 113.784 61.4069Z" fill="#A45E1E"/>
<path d="M111.96 54.0878C106.94 51.0599 109.098 45.901 114.622 47.8633C121.788 50.4088 128.26 53.3026 130.405 55.856C135.206 61.5739 140.678 69.1955 144.628 78.3336C145.082 79.3835 144.555 80.589 143.488 81.0018C142.437 81.4086 141.261 80.8866 140.776 79.869C137.788 73.5933 134.068 71.6117 130.405 67.2485C126.757 62.9046 118.449 56.4271 114.122 54.9748C113.382 54.7264 112.628 54.4909 111.96 54.0878Z" fill="#7B4A1D"/>
<path d="M121.739 50.3829C118.89 47.2863 121.145 42.9151 124.889 44.8358C133.215 49.1075 138.094 57.6848 140.489 62.3016C142.907 66.9628 146.621 69.7636 145.165 77.8012C144.963 78.9142 143.977 79.6941 142.846 79.73C141.517 79.7722 140.4 78.7744 140.117 77.4751C138.933 72.0464 135.96 69.4635 133.707 65.1191C131.382 60.636 127.036 53.9491 123.517 51.7347C122.884 51.3369 122.245 50.9326 121.739 50.3829Z" fill="#5E3F24"/>
<path d="M106.665 67.6002C97.4805 66.4293 97.6431 60.4102 106.895 60.7623C112.965 60.9933 117.901 61.545 119.984 62.5707C126.782 65.9198 134.174 71.3464 141.472 78.3392C142.206 79.0423 142.531 80.0692 142.351 81.0696C141.915 83.503 138.915 84.4683 137.049 82.8459C132.47 78.8627 127.912 75.7185 123.651 73.62C118.927 71.2929 113.984 67.9569 110.357 67.6662C109.133 67.5681 107.883 67.7555 106.665 67.6002Z" fill="#946131"/>
<path d="M172.947 46.0331L173.139 45.698C173.806 44.5519 174.433 43.6937 175.023 43.1235C175.619 42.557 176.231 42.1748 176.86 41.9767C177.489 41.7787 178.174 41.6653 178.916 41.6366C179.474 41.6076 179.995 41.5442 180.479 41.4464C180.963 41.3486 181.399 41.1836 181.785 40.9512C182.176 40.7124 182.493 40.3794 182.738 39.9523C182.999 39.4989 183.118 39.0392 183.098 38.573C183.077 38.1069 182.935 37.6763 182.673 37.2812C182.417 36.8898 182.069 36.5678 181.629 36.3152C181.202 36.0701 180.743 35.9334 180.253 35.9053C179.766 35.8706 179.295 35.9674 178.841 36.1958C178.391 36.4177 178.001 36.7924 177.672 37.3199L173.651 35.0122C174.438 33.7169 175.375 32.8137 176.463 32.3027C177.555 31.7851 178.715 31.5988 179.942 31.7439C181.172 31.8824 182.382 32.2929 183.572 32.9754C184.879 33.7258 185.911 34.6063 186.668 35.6169C187.428 36.6209 187.86 37.6943 187.964 38.8371C188.068 39.9799 187.79 41.1263 187.13 42.2762C186.689 43.0449 186.169 43.6547 185.57 44.1056C184.98 44.5537 184.327 44.8776 183.61 45.0774C182.896 45.2706 182.125 45.3739 181.296 45.3874C180.6 45.3983 179.988 45.4752 179.461 45.618C178.94 45.7646 178.471 46.0108 178.054 46.3568C177.644 46.7065 177.251 47.2015 176.875 47.8416L176.682 48.1767L172.947 46.0331ZM171.278 53.4608C170.621 53.0837 170.191 52.5314 169.989 51.8037C169.797 51.0732 169.891 50.3846 170.27 49.7379C170.633 49.0902 171.177 48.6684 171.901 48.4724C172.631 48.2802 173.325 48.3726 173.982 48.7497C174.606 49.1079 175.023 49.6527 175.232 50.3842C175.441 51.1156 175.364 51.8052 175.001 52.4529C174.746 52.8827 174.403 53.2143 173.972 53.4475C173.551 53.6778 173.102 53.7996 172.622 53.8129C172.147 53.8195 171.699 53.7022 171.278 53.4608Z" fill="#FFC807"/>
<path d="M108.139 30.9681L115.866 45.3223L112.258 47.3924L103.753 33.4851L108.139 30.9681ZM117.682 52.6652C117.031 53.0385 116.341 53.129 115.61 52.9368C114.876 52.738 114.326 52.3115 113.959 51.6572C113.583 51.017 113.496 50.3331 113.699 49.6055C113.901 48.8778 114.328 48.3273 114.978 47.954C115.603 47.5958 116.283 47.5109 117.02 47.6994C117.757 47.8878 118.314 48.3021 118.69 48.9423C118.932 49.3797 119.045 49.8433 119.029 50.3328C119.016 50.8121 118.894 51.2619 118.664 51.6824C118.43 52.0963 118.102 52.4239 117.682 52.6652Z" fill="#FFC807"/>
<path d="M138.013 43.3285V42.9421C138.021 41.6163 138.138 40.5595 138.365 39.7716C138.6 38.9838 138.941 38.3474 139.388 37.8625C139.835 37.3777 140.373 36.9383 141.002 36.5444C141.472 36.2413 141.892 35.9269 142.263 35.6012C142.634 35.2754 142.93 34.9156 143.15 34.5216C143.369 34.1201 143.479 33.6731 143.479 33.1807C143.479 32.658 143.354 32.1997 143.104 31.8057C142.854 31.4118 142.517 31.1088 142.093 30.8966C141.676 30.6845 141.214 30.5785 140.706 30.5785C140.214 30.5785 139.748 30.6883 139.309 30.908C138.869 31.1201 138.509 31.4383 138.229 31.8625C137.949 32.2792 137.797 32.7981 137.775 33.4194H133.138C133.176 31.9042 133.54 30.6542 134.229 29.6694C134.919 28.6769 135.831 27.9383 136.968 27.4535C138.104 26.961 139.358 26.7148 140.729 26.7148C142.237 26.7148 143.57 26.9648 144.729 27.4648C145.888 27.9572 146.797 28.6731 147.456 29.6125C148.115 30.5519 148.445 31.6845 148.445 33.0103C148.445 33.8966 148.297 34.6845 148.002 35.3739C147.714 36.0557 147.309 36.6618 146.786 37.1921C146.263 37.7148 145.646 38.1883 144.934 38.6125C144.335 38.9686 143.843 39.3398 143.456 39.7262C143.078 40.1125 142.794 40.5595 142.604 41.0671C142.422 41.5747 142.328 42.1997 142.32 42.9421V43.3285H138.013ZM140.263 50.6012C139.506 50.6012 138.858 50.336 138.32 49.8057C137.79 49.2678 137.528 48.6239 137.536 47.8739C137.528 47.1315 137.79 46.4951 138.32 45.9648C138.858 45.4345 139.506 45.1694 140.263 45.1694C140.983 45.1694 141.615 45.4345 142.161 45.9648C142.706 46.4951 142.983 47.1315 142.99 47.8739C142.983 48.3739 142.85 48.8322 142.593 49.2489C142.343 49.658 142.013 49.9875 141.604 50.2375C141.195 50.48 140.748 50.6012 140.263 50.6012ZM157.638 27.033L157.195 43.3285H153.036L152.581 27.033H157.638ZM155.115 50.6012C154.365 50.6012 153.722 50.336 153.184 49.8057C152.646 49.2678 152.381 48.6239 152.388 47.8739C152.381 47.1315 152.646 46.4951 153.184 45.9648C153.722 45.4345 154.365 45.1694 155.115 45.1694C155.835 45.1694 156.468 45.4345 157.013 45.9648C157.559 46.4951 157.835 47.1315 157.843 47.8739C157.835 48.3739 157.703 48.8322 157.445 49.2489C157.195 49.658 156.865 49.9875 156.456 50.2375C156.047 50.48 155.6 50.6012 155.115 50.6012Z" fill="#FFC807"/>
</svg>
