<svg width="126" height="126" viewBox="0 0 126 126" fill="none" xmlns="http://www.w3.org/2000/svg">
<path d="M125.13 62.5648C125.13 97.1183 97.1183 125.13 62.5648 125.13C28.0112 125.13 0 97.1183 0 62.5648C0 28.0112 28.0112 0 62.5648 0C97.1183 0 125.13 28.0112 125.13 62.5648Z" fill="#3692FF"/>
<path fill-rule="evenodd" clip-rule="evenodd" d="M62.2073 63.2389C59.8801 63.2353 57.2894 61.5987 57.2894 61.5987C57.2894 61.5987 55.146 60.3047 53.6751 59.947C52.2043 59.5893 52.7926 60.7279 52.7926 60.7279C52.7926 60.7279 54.3941 64.5004 52.662 62.5998C50.9294 60.6992 48.8049 58.9061 48.8049 58.9061C48.8049 58.9061 45.9615 56.4994 44.7848 56.4871C43.6081 56.4749 44.3271 57.4431 44.3271 57.4431C44.3271 57.4431 46.8116 60.6301 43.584 58.3606C40.3563 56.0911 37.8174 56.5194 37.8174 56.5194C33.1698 57.2901 30.7599 62.5998 30.7599 62.5998L30.3886 88.1753C30.3886 88.1753 35.2038 95.9268 43.584 95.8122C51.8316 95.6988 61.8913 86.4746 62.2073 86.183C62.5233 86.4746 72.583 95.6988 80.8307 95.8122C89.2107 95.9268 94.0259 88.1753 94.0259 88.1753L93.6546 62.5998C93.6546 62.5998 91.2447 57.2901 86.5972 56.5194C86.5972 56.5194 84.0582 56.0911 80.8307 58.3606C77.6031 60.6301 80.0876 57.4431 80.0876 57.4431C80.0876 57.4431 80.8065 56.4749 79.6298 56.4871C78.4532 56.4994 75.6098 58.9061 75.6098 58.9061C75.6098 58.9061 73.4853 60.6992 71.7527 62.5998C70.0205 64.5004 71.622 60.7279 71.622 60.7279C71.622 60.7279 72.2104 59.5893 70.7395 59.947C69.2687 60.3047 67.1253 61.5987 67.1253 61.5987C67.1253 61.5987 64.5345 63.2353 62.2073 63.2389Z" fill="#E0DCD1"/>
<path d="M92.5959 95.4559C92.5959 104.341 79.1505 111.544 62.5648 111.544C45.9791 111.544 32.5337 104.341 32.5337 95.4559C32.5337 86.5707 45.9791 79.3679 62.5648 79.3679C79.1505 79.3679 92.5959 86.5707 92.5959 95.4559Z" fill="#D9D9D9"/>
<path d="M42.544 76.5078C42.544 85.9853 39.1827 93.6684 35.0363 93.6684C30.8898 93.6684 27.5285 85.9853 27.5285 76.5078C27.5285 67.0302 30.8898 59.3471 35.0363 59.3471C39.1827 59.3471 42.544 67.0302 42.544 76.5078Z" fill="#E0DCD1"/>
<path d="M97.601 77.2228C97.601 86.7003 94.2397 94.3834 90.0933 94.3834C85.9468 94.3834 82.5855 86.7003 82.5855 77.2228C82.5855 67.7452 85.9468 60.0622 90.0933 60.0622C94.2397 60.0622 97.601 67.7452 97.601 77.2228Z" fill="#E0DCD1"/>
<path fill-rule="evenodd" clip-rule="evenodd" d="M62.5212 106.896C64.9798 106.896 70.0725 98.8278 70.0725 95.6686C70.0725 92.5094 70.0545 91.5233 62.5212 91.5233C54.988 91.5233 55.057 92.5094 55.057 95.6686C55.057 98.8278 60.0627 106.896 62.5212 106.896Z" fill="#292721"/>
<path fill-rule="evenodd" clip-rule="evenodd" d="M62.5358 103.679C64.1748 103.679 67.5699 98.0495 67.5699 95.8454C67.5699 93.6413 67.5579 92.9534 62.5358 92.9534C57.5136 92.9534 57.5596 93.6413 57.5596 95.8454C57.5596 98.0495 60.8967 103.679 62.5358 103.679Z" fill="#923C3C"/>
<path fill-rule="evenodd" clip-rule="evenodd" d="M55.6658 91.3885C57.4622 86.358 62.4009 86.5144 62.5627 86.5209C62.5627 86.5174 67.6373 86.2703 69.4637 91.3848C71.2673 96.4352 62.7798 100.015 62.5668 100.104C62.5668 100.109 53.8394 96.503 55.6658 91.3885Z" fill="#3D3A31"/>
<path fill-rule="evenodd" clip-rule="evenodd" d="M62.2073 90.8083C63.5894 90.8083 64.7098 90.168 64.7098 89.3782C64.7098 88.5884 63.5894 87.9482 62.2073 87.9482C60.8251 87.9482 59.7047 88.5884 59.7047 89.3782C59.7047 90.168 60.8251 90.8083 62.2073 90.8083Z" fill="#726E62"/>
<path d="M22.3005 62.8742C20.012 61.7299 20.2916 58.3768 22.7807 57.7843C27.4949 56.6621 33.2064 55.8335 36.464 57.4505C41.489 59.9448 46.957 63.978 52.36 69.1695C52.8962 69.6847 53.135 70.4353 53.0065 71.1677C52.6913 72.9636 50.4772 73.6792 49.1034 72.4803C45.7154 69.5236 42.345 67.1872 39.1974 65.6248C35.7156 63.8965 28.9461 62.3967 25.4135 63.045C24.381 63.2344 23.2395 63.3437 22.3005 62.8742Z" fill="#834F13"/>
<path d="M49.1248 62.8742C51.4133 61.7299 51.1337 58.3768 48.6447 57.7843C43.9305 56.6621 38.219 55.8335 34.9614 57.4505C29.9364 59.9448 24.4684 63.978 19.0653 69.1695C18.5291 69.6847 18.2904 70.4353 18.4189 71.1677C18.734 72.9636 20.9482 73.6792 22.3219 72.4803C25.71 69.5236 29.0804 67.1872 32.2279 65.6248C35.7098 63.8965 42.4792 62.3967 46.0118 63.045C47.0444 63.2344 48.1859 63.3437 49.1248 62.8742Z" fill="#834F13"/>
<path d="M104.041 62.0832C106.329 60.9389 106.049 57.5858 103.56 56.9932C98.8462 55.871 93.1347 55.0425 89.8771 56.6595C84.8521 59.1538 79.3841 63.187 73.9811 68.3785C73.4449 68.8937 73.2061 69.6442 73.3346 70.3767C73.6497 72.1726 75.8639 72.8882 77.2377 71.6893C80.6257 68.7325 83.9961 66.3961 87.1437 64.8338C90.6255 63.1054 97.3949 61.6057 100.928 62.2539C101.96 62.4434 103.102 62.5526 104.041 62.0832Z" fill="#834F13"/>
<path d="M77.2162 62.0832C74.9277 60.9389 75.2073 57.5858 77.6964 56.9932C82.4106 55.871 88.1221 55.0425 91.3797 56.6595C96.4047 59.1538 101.873 63.187 107.276 68.3785C107.812 68.8937 108.051 69.6442 107.922 70.3767C107.607 72.1726 105.393 72.8882 104.019 71.6893C100.631 68.7325 97.2607 66.3961 94.1131 64.8338C90.6313 63.1054 83.8618 61.6057 80.3292 62.2539C79.2967 62.4434 78.1552 62.5526 77.2162 62.0832Z" fill="#834F13"/>
<path d="M94.0703 49.8905C106.89 48.7722 106.533 43.3277 93.7347 44.6716C86.6952 45.4108 81.9447 46.2272 80.8 47.1144C74.8097 51.7571 68.6549 58.554 62.9049 66.8667C62.3267 67.7025 62.2138 68.7737 62.5899 69.7179C63.5047 72.0146 66.6377 72.3596 68.1404 70.3964C71.8293 65.5769 75.6656 61.5835 79.4191 58.6744C83.9297 55.1785 88.4556 50.4702 92.1141 49.9958C92.7616 49.9118 93.4198 49.9472 94.0703 49.8905Z" fill="#A45E1E"/>
<path d="M95.894 42.5714C100.914 39.5434 98.7563 34.3845 93.2319 36.3469C86.0657 38.8924 79.5935 41.7862 77.4495 44.3396C72.6484 50.0574 67.1762 57.6791 63.226 66.8171C62.7721 67.8671 63.2993 69.0726 64.366 69.4854C65.4172 69.8922 66.5929 69.3701 67.0775 68.3525C70.066 62.0769 73.7858 60.0953 77.4495 55.7321C81.097 51.3881 89.4054 44.9107 93.7325 43.4583C94.4723 43.21 95.2257 42.9745 95.894 42.5714Z" fill="#7B4A1D"/>
<path d="M86.1148 38.8664C88.9636 35.7699 86.7088 31.3986 82.965 33.3193C74.6388 37.5911 69.7598 46.1684 67.3651 50.7852C64.9474 55.4463 61.2328 58.2472 62.6894 66.2848C62.8911 67.3977 63.8772 68.1777 65.0077 68.2136C66.3369 68.2557 67.4536 67.258 67.7371 65.9587C68.9214 60.5299 71.8936 57.9471 74.147 53.6027C76.4724 49.1195 80.8178 42.4327 84.3373 40.2183C84.9695 39.8205 85.609 39.4162 86.1148 38.8664Z" fill="#5E3F24"/>
<path d="M101.189 56.0838C110.374 54.9129 110.211 48.8938 100.959 49.2459C94.8889 49.4769 89.9527 50.0286 87.8705 51.0543C81.0718 54.4033 73.6805 59.83 66.3823 66.8227C65.6484 67.5259 65.3233 68.5527 65.5027 69.5531C65.939 71.9865 68.9395 72.9519 70.8049 71.3294C75.3842 67.3463 79.9425 64.2021 84.2025 62.1036C88.9267 59.7764 93.8704 56.4404 97.4968 56.1497C98.7207 56.0516 99.971 56.239 101.189 56.0838Z" fill="#946131"/>
<path fill-rule="evenodd" clip-rule="evenodd" d="M44.6891 88.6632C49.8228 88.6632 53.9845 83.7012 53.9845 77.5803C53.9845 71.4594 49.8228 66.4974 44.6891 66.4974C39.5555 66.4974 35.3938 71.4594 35.3938 77.5803C35.3938 83.7012 39.5555 88.6632 44.6891 88.6632Z" fill="black"/>
<path fill-rule="evenodd" clip-rule="evenodd" d="M44.7884 84.1288C47.6287 84.1288 49.9312 81.3658 49.9312 77.9575C49.9312 74.5491 47.6287 71.7861 44.7884 71.7861C41.9482 71.7861 39.6456 74.5491 39.6456 77.9575C39.6456 81.3658 41.9482 84.1288 44.7884 84.1288Z" fill="black"/>
<path fill-rule="evenodd" clip-rule="evenodd" d="M46.8342 78.6528C48.8087 78.6528 50.4093 77.0522 50.4093 75.0777C50.4093 73.1032 48.8087 71.5026 46.8342 71.5026C44.8597 71.5026 43.2591 73.1032 43.2591 75.0777C43.2591 77.0522 44.8597 78.6528 46.8342 78.6528Z" fill="white"/>
<path fill-rule="evenodd" clip-rule="evenodd" d="M50.4093 80.7979C51.1991 80.7979 51.8394 80.1577 51.8394 79.3679C51.8394 78.5781 51.1991 77.9378 50.4093 77.9378C49.6195 77.9378 48.9793 78.5781 48.9793 79.3679C48.9793 80.1577 49.6195 80.7979 50.4093 80.7979Z" fill="white"/>
<path fill-rule="evenodd" clip-rule="evenodd" d="M79.7254 88.6632C84.859 88.6632 89.0207 83.7012 89.0207 77.5803C89.0207 71.4594 84.859 66.4974 79.7254 66.4974C74.5917 66.4974 70.4301 71.4594 70.4301 77.5803C70.4301 83.7012 74.5917 88.6632 79.7254 88.6632Z" fill="black"/>
<path fill-rule="evenodd" clip-rule="evenodd" d="M79.7593 84.1288C82.5996 84.1288 84.9021 81.3658 84.9021 77.9575C84.9021 74.5491 82.5996 71.7861 79.7593 71.7861C76.919 71.7861 74.6165 74.5491 74.6165 77.9575C74.6165 81.3658 76.919 84.1288 79.7593 84.1288Z" fill="black"/>
<path fill-rule="evenodd" clip-rule="evenodd" d="M79.0104 77.9378C80.9849 77.9378 82.5855 76.3372 82.5855 74.3627C82.5855 72.3882 80.9849 70.7876 79.0104 70.7876C77.0359 70.7876 75.4352 72.3882 75.4352 74.3627C75.4352 76.3372 77.0359 77.9378 79.0104 77.9378Z" fill="white"/>
<path fill-rule="evenodd" clip-rule="evenodd" d="M74.7202 80.0829C75.51 80.0829 76.1503 79.4426 76.1503 78.6528C76.1503 77.863 75.51 77.2228 74.7202 77.2228C73.9304 77.2228 73.2902 77.863 73.2902 78.6528C73.2902 79.4426 73.9304 80.0829 74.7202 80.0829Z" fill="white"/>
<path d="M43.704 94.8683C43.1001 96.9546 39.0743 97.6223 34.712 96.3596C30.3498 95.0969 27.303 92.382 27.9069 90.2957C28.5108 88.2094 32.5367 87.5417 36.8989 88.8044C41.2612 90.0671 44.3079 92.782 43.704 94.8683Z" fill="#FF8484"/>
<path d="M97.331 90.2958C97.9348 92.3821 94.8879 95.0968 90.5256 96.3592C86.1632 97.6216 82.1374 96.9537 81.5336 94.8674C80.9299 92.7811 83.9768 90.0664 88.3391 88.8039C92.7014 87.5415 96.7273 88.2094 97.331 90.2958Z" fill="#FF8484"/>
<path d="M59.3148 35.6407C61.0245 32.9985 64.9254 32.9753 65.9745 35.9424C67.4155 40.018 67.3107 43.765 67.2118 48.6572C67.1127 53.5595 67.186 55.7005 65.2085 62.0534C64.6385 63.8846 62.7834 64.9835 60.8923 64.6639C59.2242 64.3821 57.9189 63.0593 57.716 61.3799C56.9971 55.4293 56.9259 50.3601 57.023 45.5551C57.1273 40.3955 57.9664 39.1658 58.8024 36.7149C58.9309 36.3382 59.0986 35.9748 59.3148 35.6407Z" fill="#8C6138"/>
<path d="M71.994 35.0103C74.6536 33.328 78.2051 34.9419 77.914 38.0755C77.5141 42.3799 75.8485 45.7379 73.7082 50.1382C71.5635 54.5476 70.7326 56.5222 66.2746 61.4613C64.9895 62.885 62.8446 63.1051 61.2616 62.0224C59.8653 61.0673 59.2345 59.3193 59.7542 57.7094C61.5956 52.0055 63.6556 47.3731 65.7577 43.0513C68.015 38.4104 69.2922 37.6457 71.0785 35.7708C71.353 35.4827 71.6576 35.2231 71.994 35.0103Z" fill="#8C6138"/>
<path d="M48.1906 36.9889C48.8535 33.9124 52.4933 32.509 54.5253 34.9121C57.3166 38.2131 58.5458 41.7543 60.1862 46.3643C61.8299 50.9838 62.6568 52.9601 63.0578 59.6015C63.1733 61.516 61.8277 63.2007 59.946 63.5717C58.2863 63.8989 56.5971 63.1243 55.8125 61.6256C53.0325 56.3155 51.1703 51.6001 49.5591 47.0723C47.8291 42.2102 48.1782 40.7631 48.0919 38.1749C48.0786 37.7772 48.1068 37.3779 48.1906 36.9889Z" fill="#8C6138"/>
<path d="M32.2708 50.6815C19.4505 49.5632 19.8078 44.1187 32.6063 45.4627C39.6458 46.2019 44.3963 47.0182 45.541 47.9054C51.5313 52.5482 57.6861 59.3451 63.4361 67.6577C64.0143 68.4936 64.1272 69.5647 63.7512 70.5089C62.8364 72.8057 59.7033 73.1506 58.2007 71.1874C54.5117 66.368 50.6754 62.3746 46.9219 59.4655C42.4113 55.9696 37.8854 51.2613 34.227 50.7869C33.5795 50.7029 32.9212 50.7383 32.2708 50.6815Z" fill="#A45E1E"/>
<path d="M30.4471 43.3624C25.427 40.3344 27.5848 35.1756 33.1092 37.1379C40.2754 39.6834 46.7475 42.5772 48.8916 45.1306C53.6927 50.8485 59.1649 58.4701 63.1151 67.6082C63.569 68.6581 63.0418 69.8636 61.975 70.2764C60.9239 70.6832 59.7481 70.1612 59.2635 69.1436C56.2751 62.8679 52.5552 60.8863 48.8916 56.5231C45.2441 52.1792 36.9356 45.7017 32.6086 44.2494C31.8688 44.001 31.1154 43.7655 30.4471 43.3624Z" fill="#7B4A1D"/>
<path d="M40.2262 39.6575C37.3774 36.5609 39.6323 32.1897 43.376 34.1104C51.7023 38.3821 56.5812 46.9594 58.9759 51.5762C61.3936 56.2374 65.1082 59.0382 63.6516 67.0758C63.4499 68.1888 62.4638 68.9687 61.3333 69.0046C60.0041 69.0468 58.8874 68.049 58.604 66.7497C57.4197 61.321 54.4474 58.7381 52.194 54.3937C49.8686 49.9106 45.5233 43.2237 42.0038 41.0093C41.3715 40.6115 40.732 40.2072 40.2262 39.6575Z" fill="#5E3F24"/>
<path d="M25.1521 56.8748C15.9675 55.7039 16.1301 49.6848 25.3822 50.0369C31.4521 50.2679 36.3884 50.8196 38.4706 51.8453C45.2692 55.1944 52.6605 60.621 59.9588 67.6138C60.6926 68.3169 61.0178 69.3438 60.8384 70.3441C60.4021 72.7776 57.4015 73.7429 55.5362 72.1205C50.9568 68.1373 46.3985 64.9931 42.1385 62.8946C37.4144 60.5675 32.4707 57.2314 28.8442 56.9408C27.6203 56.8426 26.37 57.0301 25.1521 56.8748Z" fill="#946131"/>
<path d="M91.4338 35.3077L91.6262 34.9726C92.2926 33.8265 92.9205 32.9683 93.5097 32.3981C94.1056 31.8316 94.718 31.4494 95.347 31.2513C95.976 31.0533 96.6612 30.9399 97.4027 30.9112C97.9609 30.8822 98.482 30.8187 98.9661 30.721C99.4502 30.6232 99.8856 30.4582 100.272 30.2258C100.663 29.9869 100.98 29.6539 101.225 29.2269C101.486 28.7735 101.605 28.3137 101.585 27.8476C101.564 27.3815 101.422 26.9509 101.16 26.5557C100.904 26.1644 100.556 25.8424 100.116 25.5897C99.6888 25.3446 99.23 25.208 98.7396 25.1799C98.2529 25.1451 97.7824 25.242 97.3281 25.4704C96.8776 25.6923 96.4879 26.067 96.159 26.5945L92.1378 24.2868C92.9248 22.9915 93.8623 22.0883 94.9504 21.5773C96.0423 21.0597 97.2018 20.8734 98.4287 21.0185C99.6594 21.157 100.869 21.5675 102.059 22.25C103.366 23.0004 104.398 23.8809 105.155 24.8915C105.915 25.8955 106.347 26.9689 106.451 28.1117C106.555 29.2545 106.277 30.4009 105.617 31.5507C105.176 32.3195 104.656 32.9293 104.057 33.3802C103.467 33.8283 102.814 34.1522 102.097 34.3519C101.383 34.5451 100.612 34.6485 99.7834 34.662C99.0871 34.6729 98.4753 34.7498 97.9479 34.8926C97.427 35.0392 96.9581 35.2854 96.5412 35.6314C96.1309 35.9811 95.7377 36.4761 95.3616 37.1162L95.1693 37.4513L91.4338 35.3077ZM89.7654 42.7354C89.1083 42.3583 88.6785 41.806 88.476 41.0783C88.2837 40.3478 88.3776 39.6592 88.7574 39.0125C89.1204 38.3648 89.6638 37.943 90.3877 37.747C91.1182 37.5547 91.812 37.6472 92.469 38.0242C93.0932 38.3825 93.5099 38.9273 93.7191 39.6587C93.9282 40.3902 93.8513 41.0797 93.4883 41.7274C93.2329 42.1573 92.8898 42.4889 92.459 42.722C92.0385 42.9524 91.5887 43.0742 91.1094 43.0874C90.6339 43.0941 90.1859 42.9767 89.7654 42.7354Z" fill="#FFC807"/>
<path d="M26.6264 20.2427L34.3528 34.5969L30.7455 36.667L22.2405 22.7597L26.6264 20.2427ZM36.169 41.9398C35.5185 42.3131 34.828 42.4036 34.0976 42.2114C33.3633 42.0126 32.8128 41.5861 32.4461 40.9318C32.07 40.2916 31.9833 39.6077 32.1858 38.88C32.3884 38.1524 32.8149 37.6019 33.4654 37.2286C34.0896 36.8704 34.7703 36.7855 35.5073 36.974C36.2443 37.1624 36.8009 37.5767 37.177 38.2169C37.4193 38.6543 37.5324 39.1178 37.5164 39.6074C37.5032 40.0867 37.3814 40.5365 37.151 40.957C36.9169 41.3709 36.5895 41.6985 36.169 41.9398Z" fill="#FFC807"/>
<path d="M56.5002 32.603V32.2167C56.5078 30.8909 56.6252 29.8341 56.8525 29.0462C57.0874 28.2583 57.4283 27.622 57.8752 27.1371C58.3222 26.6523 58.8601 26.2129 59.4889 25.8189C59.9586 25.5159 60.379 25.2015 60.7502 24.8758C61.1215 24.55 61.4169 24.1902 61.6366 23.7962C61.8563 23.3947 61.9662 22.9477 61.9662 22.4553C61.9662 21.9326 61.8412 21.4742 61.5912 21.0803C61.3412 20.6864 61.004 20.3833 60.5798 20.1712C60.1631 19.9591 59.701 19.853 59.1934 19.853C58.701 19.853 58.2351 19.9629 57.7957 20.1826C57.3563 20.3947 56.9965 20.7129 56.7162 21.1371C56.4358 21.5538 56.2843 22.0727 56.2616 22.6939H51.6252C51.6631 21.1788 52.0268 19.9288 52.7162 18.9439C53.4055 17.9515 54.3184 17.2129 55.4548 16.728C56.5912 16.2356 57.8449 15.9894 59.2161 15.9894C60.7237 15.9894 62.0571 16.2394 63.2162 16.7394C64.3752 17.2318 65.2843 17.9477 65.9434 18.8871C66.6025 19.8265 66.9321 20.9591 66.9321 22.2849C66.9321 23.1712 66.7843 23.9591 66.4889 24.6485C66.201 25.3303 65.7957 25.9364 65.273 26.4667C64.7502 26.9894 64.1328 27.4629 63.4207 27.8871C62.8222 28.2432 62.3298 28.6144 61.9434 29.0008C61.5646 29.3871 61.2805 29.8341 61.0912 30.3417C60.9093 30.8493 60.8146 31.4743 60.8071 32.2167V32.603H56.5002ZM58.7502 39.8758C57.9927 39.8758 57.3449 39.6106 56.8071 39.0803C56.2768 38.5424 56.0154 37.8985 56.023 37.1485C56.0154 36.4061 56.2768 35.7697 56.8071 35.2394C57.3449 34.7091 57.9927 34.4439 58.7502 34.4439C59.4699 34.4439 60.1025 34.7091 60.648 35.2394C61.1934 35.7697 61.4699 36.4061 61.4775 37.1485C61.4699 37.6485 61.3374 38.1068 61.0798 38.5235C60.8298 38.9326 60.5002 39.2621 60.0911 39.5121C59.6821 39.7546 59.2351 39.8758 58.7502 39.8758Z" fill="#FFC807"/>
<path d="M76.1252 16.3076L75.6821 32.603H71.523L71.0684 16.3076H76.1252ZM73.6025 39.8758C72.8525 39.8758 72.2086 39.6106 71.6707 39.0803C71.1328 38.5424 70.8677 37.8985 70.8752 37.1485C70.8677 36.4061 71.1328 35.7697 71.6707 35.2394C72.2086 34.7091 72.8525 34.4439 73.6025 34.4439C74.3222 34.4439 74.9548 34.7091 75.5002 35.2394C76.0457 35.7697 76.3222 36.4061 76.3298 37.1485C76.3222 37.6485 76.1896 38.1068 75.9321 38.5235C75.6821 38.9326 75.3525 39.2621 74.9434 39.5121C74.5343 39.7546 74.0874 39.8758 73.6025 39.8758Z" fill="#FFC807"/>
</svg>
