<svg width="405" height="189" viewBox="0 0 405 189" fill="none" xmlns="http://www.w3.org/2000/svg">
<path fill-rule="evenodd" clip-rule="evenodd" d="M201 103.443C197.745 103.438 194.122 101.149 194.122 101.149C194.122 101.149 191.124 99.3392 189.067 98.8389C187.01 98.3387 187.833 99.9311 187.833 99.9311C187.833 99.9311 190.073 105.207 187.65 102.549C185.227 99.891 182.256 97.3832 182.256 97.3832C182.256 97.3832 178.279 94.0173 176.634 94.0002C174.988 93.983 175.994 95.3371 175.994 95.3371C175.994 95.3371 179.468 99.7944 174.954 96.6203C170.44 93.4462 166.889 94.0453 166.889 94.0453C160.39 95.1231 157.019 102.549 157.019 102.549L156.5 138.318C156.5 138.318 163.234 149.159 174.954 148.998C186.489 148.84 200.558 135.939 201 135.531C201.442 135.939 215.511 148.84 227.046 148.998C238.766 149.159 245.5 138.318 245.5 138.318L244.981 102.549C244.981 102.549 241.61 95.1231 235.111 94.0453C235.111 94.0453 231.56 93.4462 227.046 96.6203C222.532 99.7944 226.007 95.3371 226.007 95.3371C226.007 95.3371 227.012 93.983 225.366 94.0002C223.721 94.0173 219.744 97.3832 219.744 97.3832C219.744 97.3832 216.773 99.891 214.35 102.549C211.927 105.207 214.167 99.9311 214.167 99.9311C214.167 99.9311 214.99 98.3387 212.933 98.8389C210.876 99.3392 207.878 101.149 207.878 101.149C207.878 101.149 204.255 103.438 201 103.443Z" fill="#E0DCD1"/>
<ellipse cx="201.5" cy="148.5" rx="42" ry="22.5" fill="#D9D9D9"/>
<ellipse cx="163" cy="122" rx="10.5" ry="24" fill="#E0DCD1"/>
<ellipse cx="240" cy="123" rx="10.5" ry="24" fill="#E0DCD1"/>
<path fill-rule="evenodd" clip-rule="evenodd" d="M201.439 164.5C204.878 164.5 212 153.216 212 148.797C212 144.379 211.975 143 201.439 143C190.904 143 191 144.379 191 148.797C191 153.216 198.001 164.5 201.439 164.5Z" fill="#292721"/>
<path fill-rule="evenodd" clip-rule="evenodd" d="M201.459 160C203.752 160 208.5 152.127 208.5 149.045C208.5 145.962 208.483 145 201.459 145C194.436 145 194.5 145.962 194.5 149.045C194.5 152.127 199.167 160 201.459 160Z" fill="#923C3C"/>
<path fill-rule="evenodd" clip-rule="evenodd" d="M191.851 142.811C194.364 135.776 201.271 135.995 201.497 136.004C201.497 135.999 208.594 135.653 211.149 142.806C213.671 149.87 201.801 154.876 201.503 155C201.503 155.007 189.297 149.964 191.851 142.811Z" fill="#3D3A31"/>
<path fill-rule="evenodd" clip-rule="evenodd" d="M201 142C202.933 142 204.5 141.105 204.5 140C204.5 138.895 202.933 138 201 138C199.067 138 197.5 138.895 197.5 140C197.5 141.105 199.067 142 201 142Z" fill="#726E62" stroke="#727272" stroke-width="0.5"/>
<path d="M145.188 102.933C141.988 101.333 142.379 96.643 145.86 95.8143C152.453 94.2448 160.441 93.0861 164.997 95.3475C172.024 98.8359 179.672 104.477 187.228 111.737C187.978 112.458 188.312 113.507 188.132 114.532C187.691 117.043 184.595 118.044 182.674 116.367C177.935 112.232 173.222 108.965 168.82 106.78C163.95 104.363 154.483 102.265 149.542 103.172C148.098 103.437 146.502 103.589 145.188 102.933Z" fill="#834F13"/>
<path d="M182.704 102.933C185.904 101.333 185.513 96.643 182.032 95.8143C175.439 94.2448 167.451 93.0861 162.895 95.3475C155.868 98.8359 148.22 104.477 140.664 111.737C139.914 112.458 139.58 113.507 139.76 114.532C140.2 117.043 143.297 118.044 145.218 116.367C149.957 112.232 154.67 108.965 159.072 106.78C163.942 104.363 173.409 102.265 178.35 103.172C179.794 103.437 181.39 103.589 182.704 102.933Z" fill="#834F13"/>
<path d="M259.506 101.826C262.707 100.226 262.316 95.5367 258.834 94.708C252.241 93.1385 244.254 91.9798 239.698 94.2412C232.67 97.7296 225.023 103.37 217.466 110.631C216.716 111.351 216.382 112.401 216.562 113.425C217.003 115.937 220.099 116.938 222.021 115.261C226.759 111.126 231.473 107.858 235.875 105.673C240.744 103.256 250.212 101.159 255.152 102.065C256.596 102.33 258.193 102.483 259.506 101.826Z" fill="#834F13"/>
<path d="M221.991 101.826C218.79 100.226 219.181 95.5367 222.662 94.708C229.255 93.1385 237.243 91.9798 241.799 94.2412C248.827 97.7296 256.474 103.37 264.03 110.631C264.78 111.351 265.114 112.401 264.935 113.425C264.494 115.937 261.397 116.938 259.476 115.261C254.738 111.126 250.024 107.858 245.622 105.673C240.752 103.256 231.285 101.159 226.344 102.065C224.9 102.33 223.304 102.483 221.991 101.826Z" fill="#834F13"/>
<path d="M245.562 84.7744C263.492 83.2104 262.992 75.596 245.093 77.4755C235.248 78.5093 228.604 79.6511 227.003 80.8919C218.625 87.385 210.017 96.8908 201.976 108.516C201.167 109.685 201.009 111.184 201.535 112.504C202.815 115.716 207.196 116.199 209.298 113.453C214.457 106.713 219.822 101.128 225.072 97.0592C231.38 92.17 237.71 85.5852 242.826 84.9217C243.732 84.8042 244.652 84.8537 245.562 84.7744Z" fill="#A45E1E"/>
<path d="M248.113 74.5383C255.133 70.3035 252.116 63.0885 244.39 65.8329C234.367 69.3929 225.316 73.4401 222.317 77.0112C215.602 85.0079 207.949 95.6671 202.425 108.447C201.79 109.916 202.527 111.601 204.019 112.179C205.489 112.748 207.134 112.018 207.811 110.594C211.991 101.818 217.193 99.0463 222.317 92.9441C227.418 86.8689 239.038 77.8099 245.09 75.7787C246.124 75.4314 247.178 75.102 248.113 74.5383Z" fill="#7B4A1D"/>
<path d="M234.436 69.3566C238.42 65.0259 235.267 58.9126 230.031 61.5988C218.386 67.573 211.563 79.5688 208.214 86.0256C204.832 92.5445 199.637 96.4616 201.674 107.703C201.956 109.259 203.336 110.35 204.917 110.4C206.776 110.459 208.337 109.064 208.734 107.247C210.39 99.6542 214.547 96.0419 217.698 89.966C220.951 83.6961 227.028 74.3443 231.95 71.2473C232.834 70.6909 233.729 70.1255 234.436 69.3566Z" fill="#5E3F24"/>
<path d="M255.518 93.436C268.363 91.7985 268.136 83.3804 255.196 83.8729C246.707 84.1959 239.803 84.9675 236.891 86.402C227.383 91.0858 217.046 98.6753 206.839 108.455C205.813 109.438 205.358 110.874 205.609 112.274C206.219 115.677 210.415 117.027 213.024 114.758C219.429 109.187 225.804 104.79 231.761 101.855C238.368 98.6004 245.282 93.9348 250.354 93.5282C252.066 93.391 253.815 93.6531 255.518 93.436Z" fill="#946131"/>
<path fill-rule="evenodd" clip-rule="evenodd" d="M176.5 139C183.68 139 189.5 132.06 189.5 123.5C189.5 114.94 183.68 108 176.5 108C169.32 108 163.5 114.94 163.5 123.5C163.5 132.06 169.32 139 176.5 139Z" fill="black" stroke="black"/>
<path fill-rule="evenodd" clip-rule="evenodd" d="M176.639 132.658C180.611 132.658 183.831 128.794 183.831 124.027C183.831 119.261 180.611 115.397 176.639 115.397C172.667 115.397 169.446 119.261 169.446 124.027C169.446 128.794 172.667 132.658 176.639 132.658Z" fill="black"/>
<path fill-rule="evenodd" clip-rule="evenodd" d="M179.5 125C182.261 125 184.5 122.761 184.5 120C184.5 117.239 182.261 115 179.5 115C176.739 115 174.5 117.239 174.5 120C174.5 122.761 176.739 125 179.5 125Z" fill="white"/>
<path fill-rule="evenodd" clip-rule="evenodd" d="M184.5 128C185.605 128 186.5 127.105 186.5 126C186.5 124.895 185.605 124 184.5 124C183.395 124 182.5 124.895 182.5 126C182.5 127.105 183.395 128 184.5 128Z" fill="white"/>
<path fill-rule="evenodd" clip-rule="evenodd" d="M225.5 139C232.68 139 238.5 132.06 238.5 123.5C238.5 114.94 232.68 108 225.5 108C218.32 108 212.5 114.94 212.5 123.5C212.5 132.06 218.32 139 225.5 139Z" fill="black" stroke="black"/>
<path fill-rule="evenodd" clip-rule="evenodd" d="M225.547 132.658C229.52 132.658 232.74 128.794 232.74 124.027C232.74 119.261 229.52 115.397 225.547 115.397C221.575 115.397 218.355 119.261 218.355 124.027C218.355 128.794 221.575 132.658 225.547 132.658Z" fill="black"/>
<path fill-rule="evenodd" clip-rule="evenodd" d="M224.5 124C227.261 124 229.5 121.761 229.5 119C229.5 116.239 227.261 114 224.5 114C221.739 114 219.5 116.239 219.5 119C219.5 121.761 221.739 124 224.5 124Z" fill="white"/>
<path fill-rule="evenodd" clip-rule="evenodd" d="M218.5 127C219.605 127 220.5 126.105 220.5 125C220.5 123.895 219.605 123 218.5 123C217.395 123 216.5 123.895 216.5 125C216.5 126.105 217.395 127 218.5 127Z" fill="white"/>
<ellipse cx="164.076" cy="144.481" rx="11.5" ry="5.5" transform="rotate(16.1435 164.076 144.481)" fill="#FF8484"/>
<ellipse cx="239.076" cy="144.48" rx="11.5" ry="5.5" transform="rotate(-16.14 239.076 144.48)" fill="#FF8484"/>
<path d="M196.955 64.8454C199.346 61.1501 204.801 61.1177 206.269 65.2672C208.284 70.9672 208.137 76.2076 207.999 83.0496C207.861 89.9057 207.963 92.9001 205.197 101.785C204.4 104.346 201.806 105.883 199.161 105.436C196.828 105.042 195.002 103.192 194.719 100.843C193.713 92.5208 193.614 85.4312 193.75 78.7111C193.895 71.4951 195.069 69.7754 196.238 66.3477C196.418 65.8209 196.652 65.3127 196.955 64.8454Z" fill="#8C6138"/>
<path d="M214.687 63.9637C218.407 61.6109 223.374 63.868 222.967 68.2505C222.407 74.2704 220.078 78.9668 217.085 85.1208C214.085 91.2876 212.923 94.0492 206.688 100.957C204.891 102.948 201.891 103.256 199.677 101.741C197.725 100.406 196.842 97.961 197.569 95.7096C200.145 87.7323 203.026 81.2537 205.965 75.2094C209.122 68.7189 210.909 67.6494 213.407 65.0273C213.791 64.6243 214.217 64.2613 214.687 63.9637Z" fill="#8C6138"/>
<path d="M181.397 66.7308C182.324 62.4283 187.415 60.4655 190.256 63.8263C194.16 68.4429 195.879 73.3955 198.173 79.8428C200.472 86.3035 201.629 89.0675 202.189 98.3558C202.351 101.033 200.469 103.389 197.838 103.908C195.516 104.366 193.154 103.283 192.057 101.187C188.169 93.7601 185.564 87.1655 183.311 80.833C180.891 74.0331 181.38 72.0093 181.259 68.3896C181.24 67.8333 181.28 67.275 181.397 66.7308Z" fill="#8C6138"/>
<path d="M159.132 85.8807C141.203 84.3167 141.702 76.7023 159.602 78.5819C169.447 79.6156 176.091 80.7574 177.691 81.9982C186.069 88.4913 194.677 97.9971 202.719 109.623C203.527 110.792 203.685 112.29 203.159 113.61C201.88 116.822 197.498 117.305 195.397 114.559C190.237 107.819 184.872 102.234 179.623 98.1655C173.314 93.2763 166.985 86.6915 161.868 86.028C160.963 85.9106 160.042 85.96 159.132 85.8807Z" fill="#A45E1E"/>
<path d="M156.582 75.6446C149.561 71.4098 152.579 64.1948 160.305 66.9393C170.327 70.4993 179.379 74.5464 182.377 78.1175C189.092 86.1142 196.745 96.7734 202.27 109.553C202.904 111.022 202.167 112.708 200.675 113.285C199.205 113.854 197.561 113.124 196.883 111.701C192.704 102.924 187.501 100.153 182.377 94.0504C177.276 87.9752 165.656 78.9162 159.605 76.885C158.57 76.5377 157.516 76.2083 156.582 75.6446Z" fill="#7B4A1D"/>
<path d="M170.258 70.463C166.274 66.1323 169.428 60.0189 174.664 62.7051C186.308 68.6793 193.132 80.6751 196.481 87.132C199.862 93.6508 205.057 97.5679 203.02 108.809C202.738 110.365 201.359 111.456 199.778 111.506C197.919 111.565 196.357 110.17 195.961 108.353C194.304 100.76 190.147 97.1483 186.996 91.0724C183.744 84.8025 177.667 75.4506 172.744 72.3536C171.86 71.7973 170.966 71.2318 170.258 70.463Z" fill="#5E3F24"/>
<path d="M149.176 94.5423C136.331 92.9048 136.559 84.4867 149.498 84.9792C157.987 85.3022 164.891 86.0738 167.803 87.5083C177.311 92.1921 187.648 99.7816 197.855 109.561C198.882 110.545 199.336 111.981 199.086 113.38C198.475 116.783 194.279 118.133 191.67 115.864C185.266 110.294 178.891 105.896 172.933 102.961C166.326 99.7067 159.412 95.0411 154.34 94.6345C152.628 94.4973 150.88 94.7595 149.176 94.5423Z" fill="#946131"/>
<path d="M244.535 54.8672L244.727 54.5321C245.394 53.386 246.022 52.5279 246.611 51.9577C247.207 51.3912 247.819 51.009 248.448 50.8109C249.077 50.6129 249.762 50.4995 250.504 50.4708C251.062 50.4417 251.583 50.3783 252.067 50.2806C252.551 50.1828 252.987 50.0177 253.373 49.7854C253.764 49.5465 254.081 49.2135 254.327 48.7864C254.587 48.3331 254.706 47.8733 254.686 47.4072C254.665 46.9411 254.523 46.5105 254.261 46.1153C254.005 45.724 253.657 45.402 253.217 45.1493C252.79 44.9042 252.331 44.7676 251.841 44.7394C251.354 44.7047 250.883 44.8016 250.429 45.03C249.979 45.2519 249.589 45.6266 249.26 46.154L245.239 43.8463C246.026 42.5511 246.963 41.6479 248.051 41.1369C249.143 40.6192 250.303 40.433 251.53 40.5781C252.76 40.7166 253.97 41.1271 255.16 41.8096C256.467 42.56 257.499 43.4405 258.256 44.451C259.016 45.4551 259.448 46.5285 259.552 47.6713C259.656 48.8141 259.378 49.9605 258.718 51.1103C258.277 51.8791 257.757 52.4889 257.158 52.9398C256.569 53.3878 255.915 53.7118 255.198 53.9115C254.484 54.1047 253.713 54.2081 252.884 54.2216C252.188 54.2325 251.576 54.3094 251.049 54.4522C250.528 54.5987 250.059 54.845 249.642 55.191C249.232 55.5407 248.839 56.0357 248.463 56.6758L248.27 57.0109L244.535 54.8672ZM242.866 62.295C242.209 61.9179 241.78 61.3655 241.577 60.6379C241.385 59.9074 241.479 59.2188 241.858 58.5721C242.221 57.9244 242.765 57.5025 243.489 57.3065C244.219 57.1143 244.913 57.2068 245.57 57.5838C246.194 57.942 246.611 58.4869 246.82 59.2183C247.029 59.9498 246.952 60.6393 246.589 61.287C246.334 61.7169 245.991 62.0485 245.56 62.2816C245.14 62.512 244.69 62.6338 244.21 62.647C243.735 62.6537 243.287 62.5363 242.866 62.295Z" fill="#FFC807"/>
<path d="M147.038 42.1699L154.765 56.5241L151.157 58.5942L142.652 44.6869L147.038 42.1699ZM156.581 63.867C155.93 64.2403 155.24 64.3308 154.509 64.1386C153.775 63.9398 153.225 63.5133 152.858 62.859C152.482 62.2189 152.395 61.5349 152.598 60.8073C152.8 60.0796 153.227 59.5291 153.877 59.1558C154.502 58.7976 155.182 58.7127 155.919 58.9012C156.656 59.0896 157.213 59.504 157.589 60.1441C157.831 60.5816 157.944 61.0451 157.928 61.5347C157.915 62.0139 157.793 62.4638 157.563 62.8842C157.329 63.2981 157.001 63.6257 156.581 63.867Z" fill="#FFC807"/>
<path d="M190.591 51.0227V50.6364C190.598 49.3106 190.716 48.2538 190.943 47.4659C191.178 46.678 191.519 46.0417 191.966 45.5568C192.413 45.072 192.951 44.6326 193.58 44.2386C194.049 43.9356 194.47 43.6212 194.841 43.2955C195.212 42.9697 195.508 42.6098 195.727 42.2159C195.947 41.8144 196.057 41.3674 196.057 40.875C196.057 40.3523 195.932 39.8939 195.682 39.5C195.432 39.1061 195.095 38.803 194.67 38.5909C194.254 38.3788 193.792 38.2727 193.284 38.2727C192.792 38.2727 192.326 38.3826 191.886 38.6023C191.447 38.8144 191.087 39.1326 190.807 39.5568C190.527 39.9735 190.375 40.4924 190.352 41.1136H185.716C185.754 39.5985 186.117 38.3485 186.807 37.3636C187.496 36.3712 188.409 35.6326 189.545 35.1477C190.682 34.6553 191.936 34.4091 193.307 34.4091C194.814 34.4091 196.148 34.6591 197.307 35.1591C198.466 35.6515 199.375 36.3674 200.034 37.3068C200.693 38.2462 201.023 39.3788 201.023 40.7045C201.023 41.5909 200.875 42.3788 200.58 43.0682C200.292 43.75 199.886 44.3561 199.364 44.8864C198.841 45.4091 198.223 45.8826 197.511 46.3068C196.913 46.6629 196.42 47.0341 196.034 47.4205C195.655 47.8068 195.371 48.2538 195.182 48.7614C195 49.2689 194.905 49.8939 194.898 50.6364V51.0227H190.591ZM192.841 58.2955C192.083 58.2955 191.436 58.0303 190.898 57.5C190.367 56.9621 190.106 56.3182 190.114 55.5682C190.106 54.8258 190.367 54.1894 190.898 53.6591C191.436 53.1288 192.083 52.8636 192.841 52.8636C193.561 52.8636 194.193 53.1288 194.739 53.6591C195.284 54.1894 195.561 54.8258 195.568 55.5682C195.561 56.0682 195.428 56.5265 195.17 56.9432C194.92 57.3523 194.591 57.6818 194.182 57.9318C193.773 58.1742 193.326 58.2955 192.841 58.2955ZM210.216 34.7273L209.773 51.0227H205.614L205.159 34.7273H210.216ZM207.693 58.2955C206.943 58.2955 206.299 58.0303 205.761 57.5C205.223 56.9621 204.958 56.3182 204.966 55.5682C204.958 54.8258 205.223 54.1894 205.761 53.6591C206.299 53.1288 206.943 52.8636 207.693 52.8636C208.413 52.8636 209.045 53.1288 209.591 53.6591C210.136 54.1894 210.413 54.8258 210.42 55.5682C210.413 56.0682 210.28 56.5265 210.023 56.9432C209.773 57.3523 209.443 57.6818 209.034 57.9318C208.625 58.1742 208.178 58.2955 207.693 58.2955Z" fill="#FFC807"/>
</svg>
